<svg width="823" height="1670" viewBox="0 0 823 1670" fill="none" xmlns="http://www.w3.org/2000/svg">
<g clip-path="url(#clip0_1_284)">
<path d="M822.123 679.49C822.123 681.679 820.349 683.452 818.161 683.452L812.218 683.452L812.218 487.331L818.161 487.331C820.349 487.331 822.123 489.105 822.123 491.293L822.123 679.49Z" fill="black"/>
<path opacity="0.76" d="M822.123 679.49C822.123 681.679 820.349 683.452 818.161 683.452L812.218 683.452L812.218 487.331L818.161 487.331C820.349 487.331 822.123 489.105 822.123 491.293L822.123 679.49Z" fill="url(#paint0_linear_1_284)"/>
<path d="M822.123 679.49C822.123 681.679 820.349 683.452 818.161 683.452L812.218 683.452L812.218 487.331L818.161 487.331C820.349 487.331 822.123 489.105 822.123 491.293L822.123 679.49Z" fill="url(#paint1_linear_1_284)"/>
<path opacity="0.48" d="M822.123 679.49C822.123 681.679 820.349 683.452 818.161 683.452L812.218 683.452L812.218 487.331L818.161 487.331C820.349 487.331 822.123 489.105 822.123 491.293L822.123 679.49Z" fill="url(#paint2_linear_1_284)"/>
<g filter="url(#filter0_f_1_284)">
<path d="M820.142 494.265C820.142 494.812 819.699 495.255 819.152 495.255C818.605 495.255 818.161 494.812 818.161 494.265L818.161 491.293L820.142 491.293L820.142 494.265Z" fill="white"/>
</g>
<g filter="url(#filter1_f_1_284)">
<path d="M820.142 679.49L818.161 679.49L818.161 492.284C818.161 491.737 818.605 491.293 819.152 491.293C819.699 491.293 820.142 491.737 820.142 492.284L820.142 679.49Z" fill="white" fill-opacity="0.8"/>
</g>
<g filter="url(#filter2_f_1_284)">
<path d="M822.123 675.528L820.142 675.528L820.142 488.322C820.142 487.775 820.586 487.331 821.133 487.331C821.68 487.331 822.123 487.775 822.123 488.322L822.123 675.528Z" fill="#61605D"/>
</g>
</g>
<g clip-path="url(#clip1_1_284)">
<path d="M0.00280762 299.137C0.00280762 296.949 1.77667 295.175 3.96485 295.175H9.90791V356.586H3.96485C1.77667 356.586 0.00280762 354.813 0.00280762 352.624V299.137Z" fill="black"/>
<path opacity="0.76" d="M0.00280762 299.137C0.00280762 296.949 1.77667 295.175 3.96485 295.175H9.90791V356.586H3.96485C1.77667 356.586 0.00280762 354.813 0.00280762 352.624V299.137Z" fill="url(#paint3_linear_1_284)"/>
<path d="M0.00280762 299.137C0.00280762 296.949 1.77667 295.175 3.96485 295.175H9.90791V356.586H3.96485C1.77667 356.586 0.00280762 354.813 0.00280762 352.624V299.137Z" fill="url(#paint4_linear_1_284)"/>
<path opacity="0.48" d="M0.00280762 299.137C0.00280762 296.949 1.77667 295.175 3.96485 295.175H9.90791V356.586H3.96485C1.77667 356.586 0.00280762 354.813 0.00280762 352.624V299.137Z" fill="url(#paint5_linear_1_284)"/>
<g filter="url(#filter3_f_1_284)">
<path d="M1.98352 298.146C1.98352 297.599 2.42699 297.156 2.97403 297.156C3.52107 297.156 3.96454 297.599 3.96454 298.146V301.118H1.98352V298.146Z" fill="white"/>
</g>
<g filter="url(#filter4_f_1_284)">
<path d="M1.98352 297.156H3.96454V353.615C3.96454 354.162 3.52107 354.605 2.97403 354.605C2.42699 354.605 1.98352 354.162 1.98352 353.615V297.156Z" fill="white" fill-opacity="0.8"/>
</g>
<g filter="url(#filter5_f_1_284)">
<path d="M0.00268555 293.194H1.98371V359.558C1.98371 360.105 1.54024 360.548 0.993196 360.548C0.446152 360.548 0.00268555 360.105 0.00268555 359.558V293.194Z" fill="#61605D"/>
</g>
</g>
<g clip-path="url(#clip2_1_284)">
<path d="M0.00244141 419.979C0.00244141 417.791 1.77631 416.017 3.96448 416.017H9.90754V526.954H3.96448C1.77631 526.954 0.00244141 525.18 0.00244141 522.992V419.979Z" fill="black"/>
<path opacity="0.76" d="M0.00244141 419.979C0.00244141 417.791 1.77631 416.017 3.96448 416.017H9.90754V526.954H3.96448C1.77631 526.954 0.00244141 525.18 0.00244141 522.992V419.979Z" fill="url(#paint6_linear_1_284)"/>
<path d="M0.00244141 419.979C0.00244141 417.791 1.77631 416.017 3.96448 416.017H9.90754V526.954H3.96448C1.77631 526.954 0.00244141 525.18 0.00244141 522.992V419.979Z" fill="url(#paint7_linear_1_284)"/>
<path opacity="0.48" d="M0.00244141 419.979C0.00244141 417.791 1.77631 416.017 3.96448 416.017H9.90754V526.954H3.96448C1.77631 526.954 0.00244141 525.18 0.00244141 522.992V419.979Z" fill="url(#paint8_linear_1_284)"/>
<g filter="url(#filter6_f_1_284)">
<path d="M1.98352 418.988C1.98352 418.441 2.42699 417.998 2.97403 417.998C3.52107 417.998 3.96454 418.441 3.96454 418.988V421.96H1.98352V418.988Z" fill="white"/>
</g>
<g filter="url(#filter7_f_1_284)">
<path d="M1.98352 419.979H3.96454V523.982C3.96454 524.529 3.52107 524.973 2.97403 524.973C2.42699 524.973 1.98352 524.529 1.98352 523.982V419.979Z" fill="white" fill-opacity="0.8"/>
</g>
<g filter="url(#filter8_f_1_284)">
<path d="M0.00244141 416.017H1.98346V529.926C1.98346 530.473 1.54 530.916 0.992952 530.916C0.445908 530.916 0.00244141 530.473 0.00244141 529.926V416.017Z" fill="#61605D"/>
</g>
</g>
<g clip-path="url(#clip3_1_284)">
<path d="M0.00268555 562.611C0.00268555 560.423 1.77655 558.649 3.96473 558.649H9.90779V669.586H3.96473C1.77655 669.586 0.00268555 667.813 0.00268555 665.624V562.611Z" fill="black"/>
<path opacity="0.76" d="M0.00268555 562.611C0.00268555 560.423 1.77655 558.649 3.96473 558.649H9.90779V669.586H3.96473C1.77655 669.586 0.00268555 667.813 0.00268555 665.624V562.611Z" fill="url(#paint9_linear_1_284)"/>
<path d="M0.00268555 562.611C0.00268555 560.423 1.77655 558.649 3.96473 558.649H9.90779V669.586H3.96473C1.77655 669.586 0.00268555 667.813 0.00268555 665.624V562.611Z" fill="url(#paint10_linear_1_284)"/>
<path opacity="0.48" d="M0.00268555 562.611C0.00268555 560.423 1.77655 558.649 3.96473 558.649H9.90779V669.586H3.96473C1.77655 669.586 0.00268555 667.813 0.00268555 665.624V562.611Z" fill="url(#paint11_linear_1_284)"/>
<g filter="url(#filter9_f_1_284)">
<path d="M1.98352 561.621C1.98352 561.074 2.42699 560.63 2.97403 560.63C3.52107 560.63 3.96454 561.074 3.96454 561.621V564.592H1.98352V561.621Z" fill="white"/>
</g>
<g filter="url(#filter10_f_1_284)">
<path d="M1.98352 562.611H3.96454V666.615C3.96454 667.162 3.52107 667.605 2.97403 667.605C2.42699 667.605 1.98352 667.162 1.98352 666.615V562.611Z" fill="white" fill-opacity="0.8"/>
</g>
<g filter="url(#filter11_f_1_284)">
<path d="M0.00268555 558.649H1.98371V672.558C1.98371 673.105 1.54024 673.548 0.993196 673.548C0.446152 673.548 0.00268555 673.105 0.00268555 672.558V558.649Z" fill="#61605D"/>
</g>
</g>
<g clip-path="url(#clip4_1_284)">
<rect x="5.94299" y="0.000915527" width="810.237" height="1670" rx="122.823" fill="black"/>
<g filter="url(#filter12_f_1_284)">
<rect x="8.91452" y="2.97245" width="804.294" height="1664.06" rx="119.852" stroke="#A0A0A0" stroke-width="5.94306"/>
</g>
<g filter="url(#filter13_f_1_284)">
<rect x="6.9335" y="0.991426" width="808.256" height="1668.02" rx="121.833" stroke="#181818" stroke-width="1.98102"/>
</g>
<g filter="url(#filter14_f_1_284)">
<rect x="16.8387" y="10.8965" width="788.446" height="1646.23" rx="121.833" stroke="white" stroke-width="1.98102"/>
</g>
<rect x="17.4329" y="11.4908" width="787.257" height="1645.04" rx="123.219" stroke="white" stroke-width="0.792408"/>
<rect x="635.908" y="0.000946045" width="11.8861" height="7.92408" fill="url(#paint12_linear_1_284)"/>
<rect x="5.94299" y="172.35" width="11.8861" height="7.92408" transform="rotate(-90 5.94299 172.35)" fill="url(#paint13_linear_1_284)"/>
<rect x="5.94299" y="1497.65" width="7.92408" height="11.8861" fill="url(#paint14_linear_1_284)"/>
<rect x="130.747" y="1662.08" width="9.9051" height="7.92408" fill="url(#paint15_linear_1_284)"/>
<rect x="808.256" y="1497.65" width="7.92408" height="11.8861" fill="url(#paint16_linear_1_284)"/>
</g>
<g clip-path="url(#clip5_1_284)">
<rect x="13.8672" y="7.92477" width="794.389" height="1654.15" rx="114.899" fill="#000100"/>
<g filter="url(#filter15_f_1_284)">
<rect x="17.8292" y="11.8868" width="786.465" height="1646.23" rx="110.937" stroke="url(#paint17_radial_1_284)" stroke-width="7.92408"/>
</g>
</g>
<rect x="301.114" y="47.5446" width="217.912" height="61.4116" rx="30.7058" fill="#030303"/>
<circle cx="486.578" cy="78.4884" r="19.0578" fill="#0E0B0F"/>
<circle cx="486.573" cy="78.4879" r="10.5877" fill="#161424"/>
<circle cx="486.579" cy="78.4896" r="6.35261" fill="#0F0F2A"/>
<circle cx="486.577" cy="76.371" r="2.11754" fill="#393752"/>
<path opacity="0.35" d="M674.316 66.4193H707.994C711.793 66.4193 714.873 69.4991 714.873 73.2982V83.2034C714.873 87.0026 711.793 90.0823 707.994 90.0823H674.316C670.517 90.0822 667.437 87.0025 667.437 83.2034V73.2982C667.437 69.4992 670.517 66.4194 674.316 66.4193Z" stroke="#0D0D0E" stroke-width="2.09015"/>
<path opacity="0.4" d="M717.899 75.2794V83.64C719.581 82.9319 720.675 81.2847 720.675 79.4597C720.675 77.6347 719.581 75.9875 717.899 75.2794Z" fill="#0D0D0E"/>
<path d="M670.354 73.2984C670.354 71.1102 672.128 69.3364 674.316 69.3364H707.994C710.182 69.3364 711.956 71.1102 711.956 73.2984V83.2035C711.956 85.3917 710.182 87.1655 707.994 87.1655H674.316C672.128 87.1655 670.354 85.3917 670.354 83.2035V73.2984Z" fill="#0D0D0E"/>
<path fill-rule="evenodd" clip-rule="evenodd" d="M632.943 83.3724C635.756 80.9441 639.876 80.944 642.689 83.3724C642.83 83.503 642.912 83.6875 642.916 83.8822C642.92 84.0769 642.845 84.2653 642.709 84.4017L638.305 88.9378C638.176 89.0712 637.999 89.1468 637.816 89.1468C637.632 89.1467 637.456 89.0711 637.327 88.9378L632.922 84.4017C632.786 84.2652 632.711 84.0769 632.715 83.8822C632.719 83.6875 632.802 83.5029 632.943 83.3724ZM626.988 77.7786C633.048 72.0246 642.433 72.0247 648.493 77.7786C648.63 77.9135 648.708 78.0983 648.71 78.2923C648.712 78.4865 648.638 78.6741 648.504 78.8118L645.958 81.4378C645.696 81.7059 645.271 81.7115 645.002 81.4505C643.012 79.6111 640.423 78.5919 637.738 78.5921C635.056 78.5933 632.469 79.6124 630.481 81.4505C630.211 81.7115 629.787 81.7058 629.525 81.4378L626.98 78.8118C626.845 78.6744 626.77 78.4874 626.772 78.2933C626.773 78.0992 626.852 77.9135 626.988 77.7786ZM621.041 72.1937C630.336 63.1013 644.999 63.1013 654.294 72.1937C654.429 72.3287 654.505 72.5129 654.506 72.7054C654.507 72.898 654.433 73.0834 654.3 73.22L651.751 75.846C651.488 76.1155 651.062 76.1192 650.795 75.8538C647.254 72.4173 642.554 70.5005 637.668 70.5003C632.781 70.5004 628.082 72.4171 624.54 75.8538C624.274 76.1196 623.847 76.1159 623.584 75.846L621.034 73.22C620.901 73.0833 620.828 72.898 620.829 72.7054C620.831 72.5128 620.907 72.3286 621.041 72.1937Z" fill="#0D0D0E"/>
<path d="M591.114 71.3174C591.114 70.2233 592 69.3364 593.095 69.3364H595.076C596.17 69.3364 597.057 70.2233 597.057 71.3174V87.1656C597.057 88.2596 596.17 89.1466 595.076 89.1466H593.095C592 89.1466 591.114 88.2596 591.114 87.1656V71.3174Z" fill="#0D0D0E"/>
<path d="M601.019 67.3553C601.019 66.2613 601.906 65.3743 603 65.3743H604.981C606.075 65.3743 606.962 66.2613 606.962 67.3553V87.1656C606.962 88.2596 606.075 89.1466 604.981 89.1466H603C601.906 89.1466 601.019 88.2596 601.019 87.1656V67.3553Z" fill="#0D0D0E"/>
<path d="M581.208 78.251C581.208 77.1569 582.095 76.2699 583.189 76.2699H585.17C586.265 76.2699 587.152 77.1569 587.152 78.251V87.1656C587.152 88.2596 586.265 89.1466 585.17 89.1466H583.189C582.095 89.1466 581.208 88.2596 581.208 87.1656V78.251Z" fill="#0D0D0E"/>
<path d="M571.303 83.2035C571.303 82.1094 572.19 81.2225 573.284 81.2225H575.265C576.359 81.2225 577.246 82.1094 577.246 83.2035V87.1656C577.246 88.2596 576.359 89.1466 575.265 89.1466H573.284C572.19 89.1466 571.303 88.2596 571.303 87.1656V83.2035Z" fill="#0D0D0E"/>
<path d="M151.803 67.1296C156.868 67.1296 161.275 70.7308 161.275 79.2817V79.3146C161.275 87.3064 157.673 92.0422 151.704 92.0422C147.347 92.0422 144.091 89.4605 143.334 85.8264L143.301 85.6455H147.478L147.528 85.81C148.152 87.4708 149.616 88.5561 151.704 88.5561C155.47 88.5561 157.065 84.8727 157.246 80.3341C157.246 80.1532 157.262 79.9723 157.262 79.7915H156.934C156.062 81.6661 153.99 83.3269 150.734 83.3269C146.179 83.3269 142.989 80.0052 142.989 75.4996V75.4667C142.989 70.6486 146.656 67.1296 151.803 67.1296ZM151.787 80.071C154.467 80.071 156.522 78.1306 156.522 75.4502V75.4173C156.522 72.7041 154.467 70.5828 151.836 70.5828C149.221 70.5828 147.133 72.6712 147.133 75.3187V75.3516C147.133 78.0977 149.09 80.071 151.787 80.071ZM167.156 76.0751C165.659 76.0751 164.541 74.924 164.541 73.4769C164.541 72.0134 165.659 70.8788 167.156 70.8788C168.668 70.8788 169.77 72.0134 169.77 73.4769C169.77 74.924 168.668 76.0751 167.156 76.0751ZM167.156 88.2766C165.659 88.2766 164.541 87.1419 164.541 85.6784C164.541 84.2149 165.659 83.0803 167.156 83.0803C168.668 83.0803 169.77 84.2149 169.77 85.6784C169.77 87.1419 168.668 88.2766 167.156 88.2766ZM184.547 91.4503V86.8953H172.938V83.4256C176.013 78.0813 179.384 72.6219 182.607 67.7215H188.609V83.3927H191.799V86.8953H188.609V91.4503H184.547ZM176.884 83.4914H184.613V71.109H184.366C181.932 74.8254 179.186 79.2159 176.884 83.2447V83.4914ZM200.048 91.4503V71.8983H199.768L193.865 76.0751V72.0792L200.064 67.7215H204.29V91.4503H200.048Z" fill="#0D0D0E"/>
<defs>
<filter id="filter0_f_1_284" x="816.18" y="489.312" width="5.94312" height="7.92408" filterUnits="userSpaceOnUse" color-interpolation-filters="sRGB">
<feFlood flood-opacity="0" result="BackgroundImageFix"/>
<feBlend mode="normal" in="SourceGraphic" in2="BackgroundImageFix" result="shape"/>
<feGaussianBlur stdDeviation="0.99051" result="effect1_foregroundBlur_1_284"/>
</filter>
<filter id="filter1_f_1_284" x="816.18" y="489.312" width="5.94312" height="192.159" filterUnits="userSpaceOnUse" color-interpolation-filters="sRGB">
<feFlood flood-opacity="0" result="BackgroundImageFix"/>
<feBlend mode="normal" in="SourceGraphic" in2="BackgroundImageFix" result="shape"/>
<feGaussianBlur stdDeviation="0.99051" result="effect1_foregroundBlur_1_284"/>
</filter>
<filter id="filter2_f_1_284" x="816.18" y="483.369" width="9.90516" height="196.121" filterUnits="userSpaceOnUse" color-interpolation-filters="sRGB">
<feFlood flood-opacity="0" result="BackgroundImageFix"/>
<feBlend mode="normal" in="SourceGraphic" in2="BackgroundImageFix" result="shape"/>
<feGaussianBlur stdDeviation="1.98102" result="effect1_foregroundBlur_1_284"/>
</filter>
<filter id="filter3_f_1_284" x="0.00250041" y="295.175" width="5.94312" height="7.92408" filterUnits="userSpaceOnUse" color-interpolation-filters="sRGB">
<feFlood flood-opacity="0" result="BackgroundImageFix"/>
<feBlend mode="normal" in="SourceGraphic" in2="BackgroundImageFix" result="shape"/>
<feGaussianBlur stdDeviation="0.99051" result="effect1_foregroundBlur_1_284"/>
</filter>
<filter id="filter4_f_1_284" x="0.00250041" y="295.175" width="5.94312" height="61.4116" filterUnits="userSpaceOnUse" color-interpolation-filters="sRGB">
<feFlood flood-opacity="0" result="BackgroundImageFix"/>
<feBlend mode="normal" in="SourceGraphic" in2="BackgroundImageFix" result="shape"/>
<feGaussianBlur stdDeviation="0.99051" result="effect1_foregroundBlur_1_284"/>
</filter>
<filter id="filter5_f_1_284" x="-3.95935" y="289.232" width="9.90516" height="75.2788" filterUnits="userSpaceOnUse" color-interpolation-filters="sRGB">
<feFlood flood-opacity="0" result="BackgroundImageFix"/>
<feBlend mode="normal" in="SourceGraphic" in2="BackgroundImageFix" result="shape"/>
<feGaussianBlur stdDeviation="1.98102" result="effect1_foregroundBlur_1_284"/>
</filter>
<filter id="filter6_f_1_284" x="0.00250041" y="416.017" width="5.94312" height="7.92408" filterUnits="userSpaceOnUse" color-interpolation-filters="sRGB">
<feFlood flood-opacity="0" result="BackgroundImageFix"/>
<feBlend mode="normal" in="SourceGraphic" in2="BackgroundImageFix" result="shape"/>
<feGaussianBlur stdDeviation="0.99051" result="effect1_foregroundBlur_1_284"/>
</filter>
<filter id="filter7_f_1_284" x="0.00250041" y="417.998" width="5.94312" height="108.956" filterUnits="userSpaceOnUse" color-interpolation-filters="sRGB">
<feFlood flood-opacity="0" result="BackgroundImageFix"/>
<feBlend mode="normal" in="SourceGraphic" in2="BackgroundImageFix" result="shape"/>
<feGaussianBlur stdDeviation="0.99051" result="effect1_foregroundBlur_1_284"/>
</filter>
<filter id="filter8_f_1_284" x="-3.9596" y="412.055" width="9.90516" height="122.823" filterUnits="userSpaceOnUse" color-interpolation-filters="sRGB">
<feFlood flood-opacity="0" result="BackgroundImageFix"/>
<feBlend mode="normal" in="SourceGraphic" in2="BackgroundImageFix" result="shape"/>
<feGaussianBlur stdDeviation="1.98102" result="effect1_foregroundBlur_1_284"/>
</filter>
<filter id="filter9_f_1_284" x="0.00250041" y="558.649" width="5.94312" height="7.92408" filterUnits="userSpaceOnUse" color-interpolation-filters="sRGB">
<feFlood flood-opacity="0" result="BackgroundImageFix"/>
<feBlend mode="normal" in="SourceGraphic" in2="BackgroundImageFix" result="shape"/>
<feGaussianBlur stdDeviation="0.99051" result="effect1_foregroundBlur_1_284"/>
</filter>
<filter id="filter10_f_1_284" x="0.00250041" y="560.63" width="5.94312" height="108.956" filterUnits="userSpaceOnUse" color-interpolation-filters="sRGB">
<feFlood flood-opacity="0" result="BackgroundImageFix"/>
<feBlend mode="normal" in="SourceGraphic" in2="BackgroundImageFix" result="shape"/>
<feGaussianBlur stdDeviation="0.99051" result="effect1_foregroundBlur_1_284"/>
</filter>
<filter id="filter11_f_1_284" x="-3.95935" y="554.687" width="9.90516" height="122.823" filterUnits="userSpaceOnUse" color-interpolation-filters="sRGB">
<feFlood flood-opacity="0" result="BackgroundImageFix"/>
<feBlend mode="normal" in="SourceGraphic" in2="BackgroundImageFix" result="shape"/>
<feGaussianBlur stdDeviation="1.98102" result="effect1_foregroundBlur_1_284"/>
</filter>
<filter id="filter12_f_1_284" x="-1.98109" y="-7.92316" width="826.085" height="1685.85" filterUnits="userSpaceOnUse" color-interpolation-filters="sRGB">
<feFlood flood-opacity="0" result="BackgroundImageFix"/>
<feBlend mode="normal" in="SourceGraphic" in2="BackgroundImageFix" result="shape"/>
<feGaussianBlur stdDeviation="3.96204" result="effect1_foregroundBlur_1_284"/>
</filter>
<filter id="filter13_f_1_284" x="1.98095" y="-3.96112" width="818.161" height="1677.92" filterUnits="userSpaceOnUse" color-interpolation-filters="sRGB">
<feFlood flood-opacity="0" result="BackgroundImageFix"/>
<feBlend mode="normal" in="SourceGraphic" in2="BackgroundImageFix" result="shape"/>
<feGaussianBlur stdDeviation="1.98102" result="effect1_foregroundBlur_1_284"/>
</filter>
<filter id="filter14_f_1_284" x="11.8861" y="5.94397" width="798.351" height="1656.13" filterUnits="userSpaceOnUse" color-interpolation-filters="sRGB">
<feFlood flood-opacity="0" result="BackgroundImageFix"/>
<feBlend mode="normal" in="SourceGraphic" in2="BackgroundImageFix" result="shape"/>
<feGaussianBlur stdDeviation="1.98102" result="effect1_foregroundBlur_1_284"/>
</filter>
<filter id="filter15_f_1_284" x="4.673e-05" y="-5.94237" width="822.123" height="1681.89" filterUnits="userSpaceOnUse" color-interpolation-filters="sRGB">
<feFlood flood-opacity="0" result="BackgroundImageFix"/>
<feBlend mode="normal" in="SourceGraphic" in2="BackgroundImageFix" result="shape"/>
<feGaussianBlur stdDeviation="6.93357" result="effect1_foregroundBlur_1_284"/>
</filter>
<linearGradient id="paint0_linear_1_284" x1="817.171" y1="683.452" x2="817.171" y2="674.538" gradientUnits="userSpaceOnUse">
<stop/>
<stop offset="1" stop-opacity="0"/>
</linearGradient>
<linearGradient id="paint1_linear_1_284" x1="812.218" y1="683.452" x2="819.152" y2="683.452" gradientUnits="userSpaceOnUse">
<stop/>
<stop offset="1" stop-color="#AEAEAE" stop-opacity="0"/>
</linearGradient>
<linearGradient id="paint2_linear_1_284" x1="817.171" y1="496.246" x2="817.171" y2="487.331" gradientUnits="userSpaceOnUse">
<stop stop-opacity="0"/>
<stop offset="1"/>
</linearGradient>
<linearGradient id="paint3_linear_1_284" x1="4.95536" y1="295.175" x2="4.95536" y2="301.118" gradientUnits="userSpaceOnUse">
<stop/>
<stop offset="1" stop-opacity="0"/>
</linearGradient>
<linearGradient id="paint4_linear_1_284" x1="9.90791" y1="295.175" x2="2.97434" y2="295.175" gradientUnits="userSpaceOnUse">
<stop/>
<stop offset="1" stop-color="#AEAEAE" stop-opacity="0"/>
</linearGradient>
<linearGradient id="paint5_linear_1_284" x1="4.95536" y1="346.082" x2="4.95536" y2="356.586" gradientUnits="userSpaceOnUse">
<stop stop-opacity="0"/>
<stop offset="1"/>
</linearGradient>
<linearGradient id="paint6_linear_1_284" x1="4.95499" y1="416.017" x2="4.95499" y2="423.941" gradientUnits="userSpaceOnUse">
<stop/>
<stop offset="1" stop-opacity="0"/>
</linearGradient>
<linearGradient id="paint7_linear_1_284" x1="9.90754" y1="416.017" x2="2.97397" y2="416.017" gradientUnits="userSpaceOnUse">
<stop/>
<stop offset="1" stop-color="#AEAEAE" stop-opacity="0"/>
</linearGradient>
<linearGradient id="paint8_linear_1_284" x1="4.95499" y1="519.03" x2="4.95499" y2="526.954" gradientUnits="userSpaceOnUse">
<stop stop-opacity="0"/>
<stop offset="1"/>
</linearGradient>
<linearGradient id="paint9_linear_1_284" x1="4.95524" y1="558.649" x2="4.95524" y2="566.573" gradientUnits="userSpaceOnUse">
<stop/>
<stop offset="1" stop-opacity="0"/>
</linearGradient>
<linearGradient id="paint10_linear_1_284" x1="9.90779" y1="558.649" x2="2.97422" y2="558.649" gradientUnits="userSpaceOnUse">
<stop/>
<stop offset="1" stop-color="#AEAEAE" stop-opacity="0"/>
</linearGradient>
<linearGradient id="paint11_linear_1_284" x1="4.95524" y1="661.662" x2="4.95524" y2="669.586" gradientUnits="userSpaceOnUse">
<stop stop-opacity="0"/>
<stop offset="1"/>
</linearGradient>
<linearGradient id="paint12_linear_1_284" x1="641.851" y1="0.000946045" x2="641.851" y2="7.92503" gradientUnits="userSpaceOnUse">
<stop stop-color="#525252"/>
<stop offset="1" stop-color="#666666"/>
</linearGradient>
<linearGradient id="paint13_linear_1_284" x1="11.8861" y1="172.35" x2="11.8861" y2="180.274" gradientUnits="userSpaceOnUse">
<stop stop-color="#525252"/>
<stop offset="1" stop-color="#666666"/>
</linearGradient>
<linearGradient id="paint14_linear_1_284" x1="5.94299" y1="1503.6" x2="13.8671" y2="1503.6" gradientUnits="userSpaceOnUse">
<stop stop-color="#525252"/>
<stop offset="1" stop-color="#666666"/>
</linearGradient>
<linearGradient id="paint15_linear_1_284" x1="135.7" y1="1670" x2="135.7" y2="1662.08" gradientUnits="userSpaceOnUse">
<stop stop-color="#525252"/>
<stop offset="1" stop-color="#666666"/>
</linearGradient>
<linearGradient id="paint16_linear_1_284" x1="816.18" y1="1503.6" x2="808.256" y2="1503.6" gradientUnits="userSpaceOnUse">
<stop stop-color="#525252"/>
<stop offset="1" stop-color="#666666"/>
</linearGradient>
<radialGradient id="paint17_radial_1_284" cx="0" cy="0" r="1" gradientUnits="userSpaceOnUse" gradientTransform="translate(412.062 389.575) rotate(90) scale(677.604 759.013)">
<stop stop-color="#879194"/>
<stop offset="1"/>
</radialGradient>
<clipPath id="clip0_1_284">
<path d="M822.125 681.472C822.125 683.661 820.351 685.434 818.162 685.434L812.219 685.434L812.219 487.332L818.162 487.332C820.351 487.332 822.125 489.106 822.125 491.294L822.125 681.472Z" fill="white"/>
</clipPath>
<clipPath id="clip1_1_284">
<path d="M0.0012207 299.136C0.0012207 296.948 1.77509 295.174 3.96326 295.174H9.90632V356.585H3.96326C1.77509 356.585 0.0012207 354.812 0.0012207 352.623V299.136Z" fill="white"/>
</clipPath>
<clipPath id="clip2_1_284">
<path d="M0.0012207 419.978C0.0012207 417.79 1.77509 416.016 3.96326 416.016H9.90632V526.953H3.96326C1.77509 526.953 0.0012207 525.179 0.0012207 522.991V419.978Z" fill="white"/>
</clipPath>
<clipPath id="clip3_1_284">
<path d="M0.0012207 562.611C0.0012207 560.423 1.77509 558.649 3.96326 558.649H9.90632V669.586H3.96326C1.77509 669.586 0.0012207 667.812 0.0012207 665.624V562.611Z" fill="white"/>
</clipPath>
<clipPath id="clip4_1_284">
<rect x="5.94299" y="0.000488281" width="810.237" height="1670" rx="122.823" fill="white"/>
</clipPath>
<clipPath id="clip5_1_284">
<rect x="13.8671" y="7.92444" width="794.389" height="1654.15" rx="114.899" fill="white"/>
</clipPath>
</defs>
</svg>
